#!OML:ASF E:\Style4\Style4.ASF
:FULLY-SPECIFIED
:DEGREES
1583
root 1.26075 17.0458 -1.59674 6.06575 -26.0574 4.09845
lowerback 18.7647 1.77572 -0.422171
upperback 10.3752 2.05101 0.421073
thorax 0.612554 0.917072 0.319075
lowerneck 4.98373 -4.6836 -5.00881
upperneck -9.11637 -6.39418 4.07801
head -3.55074 -3.19534 2.52413
rclavicle -2.50469e-014 3.4191e-014
rhumerus 22.9718 8.86437 -72.9388
rradius 94.2214
rwrist 23.2207
rhand 14.2942 -1.26752
rfingers 7.12502
rthumb 39.1869 -26.7338
lclavicle -2.50469e-014 3.4191e-014
lhumerus 42.3569 -18.6889 63.837
lradius 121.17
lwrist -8.57439
lhand 9.15587 34.6849
lfingers 7.12502
lthumb 34.3253 61.3958
rfemur -40.117 15.0049 8.3835
rtibia 48.4741
rfoot -17.7835 -3.7625
rtoes -17.8918
lfemur -32.8708 16.4253 -29.0199
ltibia 49.8522
lfoot -27.7728 14.3255
ltoes -9.4136
1584
root 1.2473 17.0552 -1.59923 6.13776 -25.926 4.05778
lowerback 18.7216 1.84302 -0.435571
upperback 10.3188 2.13782 0.323782
thorax 0.576057 0.964044 0.208884
lowerneck 5.13271 -4.72907 -4.75766
upperneck -9.13953 -6.43734 4.09889
head -3.59195 -3.2265 2.49522
rclavicle 2.46493e-014 -4.6118e-014
rhumerus 21.6228 8.91273 -73.3444
rradius 94.9081
rwrist 23.2266
rhand 14.5263 -1.37966
rfingers 7.12502
rthumb 39.4056 -26.7823
lclavicle 2.46493e-014 -4.6118e-014
lhumerus 43.0471 -18.7756 63.826
lradius 120.29
lwrist -8.77904
lhand 8.97753 34.6023
lfingers 7.12502
lthumb 34.1559 61.3513
rfemur -40.0484 14.9543 8.46463
rtibia 48.3431
rfoot -17.7179 -3.84925
rtoes -17.8489
lfemur -32.8319 16.2986 -28.9325
ltibia 49.725
lfoot -27.6927 14.2894
ltoes -9.2282
1585
root 1.23363 17.0628 -1.5995 6.18365 -25.7938 4.03682
lowerback 18.727 1.85969 -0.536884
upperback 10.2647 2.14541 0.279421
thorax 0.512804 0.966064 0.216716
lowerneck 5.22335 -4.75079 -4.64101
upperneck -9.17192 -6.4611 4.08302
head -3.62354 -3.24165 2.47509
rclavicle 6.55989e-014 -2.38542e-015
rhumerus 20.3886 9.13799 -73.6068
rradius 95.6946
rwrist 23.2982
rhand 14.8135 -1.4765
rfingers 7.12502
rthumb 39.6761 -26.7994
lclavicle 6.55989e-014 -2.38542e-015
lhumerus 43.6123 -18.7139 63.8811
lradius 119.341
lwrist -8.87317
lhand 8.87447 34.6051
lfingers 7.12502
lthumb 34.058 61.3759
rfemur -39.9581 14.8786 8.53816
rtibia 48.2431
rfoot -17.692 -3.9556
rtoes -18.0604
lfemur -32.7731 16.204 -28.8577
ltibia 49.5968
lfoot -27.6279 14.1982
ltoes -9.1986
1586
root 1.22223 17.0681 -1.60144 6.28304 -25.6744 3.99844
lowerback 18.6893 1.81684 -0.645958
upperback 10.2492 2.07493 0.287679
thorax 0.511711 0.926755 0.30014
lowerneck 5.1726 -4.70243 -4.87219
upperneck -9.17074 -6.40303 4.2085
head -3.606 -3.21024 2.55432
rclavicle 3.57812e-015 2.22639e-014
rhumerus 19.2985 9.61472 -73.7006
rradius 96.5448
rwrist 23.2111
rhand 15.0162 -1.64257
rfingers 7.12502
rthumb 39.8669 -26.9086
lclavicle 3.57812e-015 2.22639e-014
lhumerus 44.1231 -18.4449 63.993
lradius 118.28
lwrist -9.07501
lhand 8.75369 34.4657
lfingers 7.12502
lthumb 33.9433 61.2621
rfemur -39.9513 14.7771 8.61302
rtibia 48.1583
rfoot -17.6498 -3.97501
rtoes -17.9685
lfemur -32.793 16.0804 -28.7768
ltibia 49.4872
lfoot -27.5827 14.0969
ltoes -8.93648
1587
root 1.21359 17.0738 -1.60441 6.37434 -25.5748 3.99796
lowerback 18.6434 1.77563 -0.736392
upperback 10.2356 2.00904 0.267576
thorax 0.518735 0.891311 0.342586
lowerneck 5.11368 -4.64576 -5.13329
upperneck -9.16725 -6.33107 4.38478
head -3.58488 -3.17307 2.65553
rclavicle -4.25399e-014 4.85035e-014
rhumerus 18.2809 10.1314 -73.8237
rradius 97.4402
rwrist 23.1568
rhand 15.3121 -2.01676
rfingers 7.12502
rthumb 40.1453 -27.1988
lclavicle -4.25399e-014 4.85035e-014
lhumerus 44.5887 -18.1837 64.0872
lradius 117.194
lwrist -9.3704
lhand 8.61475 34.4508
lfingers 7.12502
lthumb 33.8113 61.2763
rfemur -39.9819 14.6413 8.64734
rtibia 48.1003
rfoot -17.617 -3.9333
rtoes -17.8177
lfemur -32.825 15.942 -28.7433
ltibia 49.3844
lfoot -27.5957 14.0431
ltoes -8.83092
1588
root 1.20457 17.0794 -1.60769 6.43083 -25.4861 3.9339
lowerback 18.6623 1.76163 -0.774427
upperback 10.2341 1.98482 0.240717
thorax 0.507518 0.878642 0.339507
lowerneck 4.92523 -4.62853 -5.21461
upperneck -9.04492 -6.29968 4.46536
head -3.50268 -3.15824 2.68366
rclavicle 1.27222e-014 -3.02153e-014
rhumerus 17.3382 10.4928 -74.0214
rradius 98.3537
rwrist 23.1624
rhand 15.7906 -2.23676
rfingers 7.12502
rthumb 40.5953 -27.2804
lclavicle 1.27222e-014 -3.02153e-014
lhumerus 45.0331 -18.018 64.0922
lradius 116.077
lwrist -9.64653
lhand 8.43018 34.549
lfingers 7.12502
lthumb 33.6359 61.4128
rfemur -39.9447 14.5391 8.76297
rtibia 48.0458
rfoot -17.5705 -3.9447
rtoes -17.59
lfemur -32.8084 15.8246 -28.6316
ltibia 49.3184
lfoot -27.5974 14.0574
ltoes -8.80366
1589
root 1.19272 17.0828 -1.61211 6.47682 -25.4151 3.93912
lowerback 18.682 1.77701 -0.941048
upperback 10.1812 1.98014 0.22339
thorax 0.435736 0.871105 0.414594
lowerneck 4.93422 -4.62037 -5.25112
upperneck -9.01805 -6.28922 4.49883
head -3.49371 -3.1534 2.70063
rclavicle -9.93923e-015 7.95139e-015
rhumerus 16.3577 10.8633 -74.1747
rradius 99.222
rwrist 22.9352
rhand 16.0441 -2.24938
rfingers 7.12502
rthumb 40.8335 -27.2185
lclavicle -9.93923e-015 7.95139e-015
lhumerus 45.3709 -17.8868 64.0991
lradius 114.829
lwrist -10.0169
lhand 8.26546 34.5037
lfingers 7.12502
lthumb 33.4794 61.4015
rfemur -39.9641 14.4514 8.81103
rtibia 48.0192
rfoot -17.5059 -3.95291
rtoes -17.5381
lfemur -32.8451 15.7131 -28.5886
ltibia 49.2835
lfoot -27.553 14.0196
ltoes -8.35301
1590
root 1.18088 17.0843 -1.61558 6.51 -25.3119 3.91796
lowerback 18.7049 1.77136 -1.04947
upperback 10.1452 1.95705 0.220554
thorax 0.382341 0.856201 0.475679
lowerneck 4.9867 -4.60607 -5.30524
upperneck -9.04288 -6.27478 4.52172
head -3.51131 -3.14539 2.72087
rclavicle 1.56245e-013 -6.36111e-014
rhumerus 15.4131 11.3491 -74.2997
rradius 100.164
rwrist 22.4314
rhand 15.9419 -2.70594
rfingers 7.12502
rthumb 40.7375 -27.7052
lclavicle 1.56245e-013 -6.36111e-014
lhumerus 45.7296 -17.7324 64.1016
lradius 113.527
lwrist -10.3597
lhand 8.25607 34.5866
lfingers 7.12502
lthumb 33.4705 61.4864
rfemur -39.953 14.384 8.88916
rtibia 48.0133
rfoot -17.512 -3.99581
rtoes -17.5842
lfemur -32.8769 15.643 -28.5291
ltibia 49.2863
lfoot -27.4072 14.1463
ltoes -8.87236
1591
root 1.16967 17.0851 -1.61788 6.56344 -25.2362 3.8105
lowerback 18.7038 1.75864 -1.09858
upperback 10.1418 1.93348 0.22208
thorax 0.378035 0.842605 0.509169
lowerneck 4.96395 -4.57746 -5.26502
upperneck -9.0335 -6.23173 4.52172
head -3.50717 -3.12525 2.71094
rclavicle -4.69132e-014 1.51076e-014
rhumerus 14.6287 11.8455 -74.4506
rradius 101.221
rwrist 21.9336
rhand 15.9542 -3.20761
rfingers 7.12502
rthumb 40.7491 -28.2032
lclavicle -4.69132e-014 1.51076e-014
lhumerus 46.0712 -17.55 64.1075
lradius 112.251
lwrist -10.479
lhand 8.42997 34.7434
lfingers 7.12502
lthumb 33.6357 61.6073
rfemur -39.9477 14.3591 9.05136
rtibia 48.0501
rfoot -17.5723 -4.02642
rtoes -17.6093
lfemur -32.8994 15.5865 -28.3767
ltibia 49.319
lfoot -27.2813 14.2582
ltoes -9.09335
1592
root 1.16007 17.0835 -1.62013 6.57408 -25.2005 3.81266
lowerback 18.6984 1.76633 -1.27695
upperback 10.1379 1.91582 0.198735
thorax 0.372356 0.827569 0.588357
lowerneck 5.00456 -4.52919 -5.19226
upperneck -9.09192 -6.16122 4.52896
head -3.54124 -3.0927 2.70197
rclavicle 5.52621e-014 -3.10104e-014
rhumerus 13.9476 12.2605 -74.5761
rradius 102.359
rwrist 21.6716
rhand 16.2929 -3.3333
rfingers 7.12502
rthumb 41.0672 -28.2283
lclavicle 5.52621e-014 -3.10104e-014
lhumerus 46.3629 -17.3964 64.1408
lradius 110.849
lwrist -10.6675
lhand 8.51346 34.6602
lfingers 7.12502
lthumb 33.7151 61.5068
rfemur -39.9874 14.3262 9.09379
rtibia 48.1294
rfoot -17.6123 -4.00727
rtoes -17.6717
lfemur -32.9223 15.5186 -28.3238
ltibia 49.3793
lfoot -27.3065 14.1537
ltoes -8.80235
1593
root 1.15309 17.077 -1.62296 6.52499 -25.2064 3.90415
lowerback 18.7662 1.78044 -1.49105
upperback 10.1039 1.89873 0.140835
thorax 0.297426 0.812999 0.648943
lowerneck 5.07313 -4.48365 -5.15679
upperneck -9.12174 -6.09899 4.5342
head -3.56936 -3.0632 2.69938
rclavicle 1.98785e-015 -3.4191e-014
rhumerus 13.2599 12.6618 -74.6683
rradius 103.617
rwrist 21.6944
rhand 16.767 -3.48527
rfingers 7.12502
rthumb 41.5122 -28.2366
lclavicle 1.98785e-015 -3.4191e-014
lhumerus 46.5667 -17.2617 64.1498
lradius 109.369
lwrist -11.0098
lhand 8.30326 34.6374
lfingers 7.12502
lthumb 33.5153 61.5274
rfemur -40.0486 14.2719 9.04666
rtibia 48.2459
rfoot -17.67 -3.94461
rtoes -17.5555
lfemur -32.9595 15.4529 -28.3679
ltibia 49.4795
lfoot -27.4315 14.0907
ltoes -8.70878
1594
root 1.14362 17.0681 -1.62639 6.47297 -25.288 3.9099
lowerback 19.4525 1.81022 -1.88563
upperback 9.69509 1.86273 0.21832
thorax -0.504451 0.787944 0.937863
lowerneck 5.06095 -4.37509 -5.31012
upperneck -8.68601 -5.97294 4.4607
head -3.42028 -2.99429 2.68172
rclavicle -8.3092e-014 1.90833e-014
rhumerus 12.1359 13.3904 -74.7674
rradius 104.976
rwrist 21.9344
rhand 17.4214 -3.60555
rfingers 7.12502
rthumb 42.1258 -28.1533
lclavicle -8.3092e-014 1.90833e-014
lhumerus 46.094 -17.1444 64.4002
lradius 107.905
lwrist -11.335
lhand 8.03975 34.6823
lfingers 7.12502
lthumb 33.2648 61.6263
rfemur -40.0971 14.3087 9.09395
rtibia 48.388
rfoot -17.707 -3.9137
rtoes -17.2689
lfemur -32.9961 15.5284 -28.336
ltibia 49.6223
lfoot -27.4403 14.188
ltoes -9.08474
1595
root 1.13271 17.0592 -1.629 6.45416 -25.4066 3.85923
lowerback 19.4387 1.85531 -2.09258
upperback 9.73251 1.88611 0.235745
thorax -0.463867 0.790776 1.06949
lowerneck 4.99168 -4.31962 -5.37831
upperneck -8.64625 -5.89912 4.48339
head -3.39504 -2.95619 2.69508
rclavicle 1.27222e-014 3.18055e-015
rhumerus 11.7459 13.7613 -74.8035
rradius 106.172
rwrist 22.0316
rhand 17.913 -3.41168
rfingers 7.12502
rthumb 42.5862 -27.8023
lclavicle 1.27222e-014 3.18055e-015
lhumerus 46.2521 -16.9519 64.4458
lradius 106.371
lwrist -11.4842
lhand 7.78206 34.7316
lfingers 7.12502
lthumb 33.0198 61.7276
rfemur -40.1641 14.3733 9.1986
rtibia 48.5522
rfoot -17.7717 -3.88824
rtoes -17.2168
lfemur -33.0419 15.6551 -28.2492
ltibia 49.7889
lfoot -27.454 14.276
ltoes -9.4896
1596
root 1.1252 17.05 -1.62998 6.40285 -25.4711 3.85444
lowerback 19.0679 1.88513 -2.13441
upperback 10.0247 1.92369 0.176922
thorax 0.0392366 0.801047 1.03684
lowerneck 4.98367 -4.32402 -5.37899
upperneck -8.93154 -5.8933 4.60491
head -3.48999 -2.95685 2.74614
rclavicle -2.10712e-014 5.1684e-015
rhumerus 11.8325 13.8769 -74.7602
rradius 107.291
rwrist 21.8992
rhand 18.246 -3.16072
rfingers 7.12502
rthumb 42.8978 -27.4427
lclavicle -2.10712e-014 5.1684e-015
lhumerus 46.7976 -16.7846 64.3374
lradius 104.875
lwrist -11.4513
lhand 7.51722 34.7732
lfingers 7.12502
lthumb 32.7679 61.8221
rfemur -40.2017 14.3495 9.26679
rtibia 48.7341
rfoot -17.8602 -3.84676
rtoes -17.2171
lfemur -33.0567 15.7033 -28.212
ltibia 49.9742
lfoot -27.5754 14.2718
ltoes -9.43366
1597
root 1.11803 17.0394 -1.6327 6.32778 -25.4637 3.82714
lowerback 17.7438 1.87122 -1.38307
upperback 10.9573 2.03772 -0.319978
thorax 1.76086 0.88413 0.119143
lowerneck 5.08348 -4.49605 -5.01644
upperneck -9.89909 -6.03916 5.18069
head -3.83463 -3.06492 2.9228
rclavicle -4.09496e-014 3.26007e-014
rhumerus 12.7276 13.1996 -75.0014
rradius 108.457
rwrist 21.6697
rhand 18.4199 -3.20544
rfingers 7.12502
rthumb 43.0603 -27.43
lclavicle -4.09496e-014 3.26007e-014
lhumerus 48.4935 -16.773 63.4103
lradius 103.461
lwrist -11.2525
lhand 7.49349 34.7357
lfingers 7.12502
lthumb 32.7453 61.7893
rfemur -40.2102 14.3087 9.36929
rtibia 48.93
rfoot -17.925 -3.80588
rtoes -17.1555
lfemur -33.0601 15.7209 -28.1411
ltibia 50.1838
lfoot -27.6501 14.324
ltoes -9.60308
